<svg xmlns="http://www.w3.org/2000/svg" viewBox="0 0 220 260" role="img" aria-label="Mag atacant">
  <defs>
    <linearGradient id="robe" x1="0" y1="0" x2="0" y2="1">
      <stop offset="0" stop-color="#6d7dff"/>
      <stop offset="1" stop-color="#1f2f98"/>
    </linearGradient>
    <radialGradient id="castAura" cx="70%" cy="34%" r="42%">
      <stop offset="0" stop-color="#ffd8d8" stop-opacity=".95"/>
      <stop offset="1" stop-color="#ff4f4f" stop-opacity="0"/>
    </radialGradient>
  </defs>
  <ellipse cx="110" cy="236" rx="62" ry="14" fill="#0a0f2f" opacity=".35"/>
  <circle cx="140" cy="90" r="56" fill="url(#castAura)"/>
  <circle cx="110" cy="78" r="30" fill="#ffd7b3"/>
  <polygon points="110,6 56,88 164,88" fill="#3548ca"/>
  <rect x="69" y="86" width="82" height="12" rx="5" fill="#e2c27b"/>
  <path d="M72 116 L148 116 L168 228 L52 228 Z" fill="url(#robe)"/>
  <rect x="94" y="122" width="32" height="100" rx="16" fill="#2b3fb4"/>
  <circle cx="109" cy="138" r="3.5" fill="#d9e6ff"/>
  <circle cx="109" cy="156" r="3.5" fill="#d9e6ff"/>
  <circle cx="109" cy="174" r="3.5" fill="#d9e6ff"/>
  <rect x="160" y="96" width="10" height="108" rx="5" fill="#8f5b2e"/>
  <circle cx="166" cy="92" r="16" fill="#ff5d5d"/>
  <circle cx="166" cy="92" r="9" fill="#ffd0d0"/>
</svg>
