<?xml version="1.0" encoding="UTF-8"?>
<svg xmlns="http://www.w3.org/2000/svg" viewBox="0 0 1000 700" role="img" aria-label="Mapa simplificat d'Europa amb colors verds i mar blau">
  <defs>
    <linearGradient id="sea" x1="0" x2="0" y1="0" y2="1">
      <stop offset="0" stop-color="#60a5fa"/>
      <stop offset="1" stop-color="#2563eb"/>
    </linearGradient>
    <linearGradient id="land" x1="0" x2="1" y1="0" y2="1">
      <stop offset="0" stop-color="#bbf7d0"/>
      <stop offset="1" stop-color="#4ade80"/>
    </linearGradient>
    <linearGradient id="highlight" x1="0" x2="1" y1="0" y2="1">
      <stop offset="0" stop-color="#fef3c7"/>
      <stop offset="1" stop-color="#facc15"/>
    </linearGradient>
  </defs>
  <rect width="1000" height="700" fill="url(#sea)"/>
  <g fill="url(#land)" stroke="none">
    <path d="M150 492 L162 450 L190 420 L228 394 L266 368 L312 344 L352 324 L398 302 L444 282 L490 266 L534 256 L580 248 L626 238 L670 222 L706 210 L742 204 L780 214 L814 236 L842 266 L862 304 L870 340 L862 374 L842 406 L820 434 L804 468 L792 504 L780 536 L754 566 L720 594 L680 618 L630 636 L576 646 L522 648 L470 640 L418 622 L368 598 L320 572 L274 544 L230 516 Z"/>
    <path d="M752 540 L782 560 L806 592 L814 626 L802 656 L776 672 L750 668 L724 646 L700 612 L716 578 Z"/>
    <path d="M828 394 L860 414 L888 444 L902 478 L898 512 L874 538 L840 552 L808 548 L792 520 Z"/>
    <path d="M258 320 L236 292 L226 262 L240 236 L268 228 L298 244 L316 272 L308 302 Z"/>
    <path d="M118 262 L138 236 L170 220 L204 222 L220 248 L206 276 L176 292 L140 292 Z"/>
  </g>
  <g fill="url(#highlight)" stroke="none">
    <path d="M614 300 L646 276 L676 270 L704 280 L726 304 L736 334 L726 362 L702 382 L668 392 L632 388 L610 364 L606 332 Z"/>
    <path d="M676 332 L694 340 L712 362 L720 390 L710 412 L688 420 L662 410 L650 384 Z"/>
    <path d="M604 254 L626 238 L654 230 L682 236 L706 252 L720 276 L714 302 L688 320 L656 324 L626 312 L610 286 Z"/>
  </g>
</svg>
